<svg preserveAspectRatio="none" width="100%" height="100%" overflow="visible" style="display: block;" viewBox="0 0 36.9333 36.9333" fill="none" xmlns="http://www.w3.org/2000/svg">
<path id="Icon" d="M35.1333 18.4667C35.1333 27.6714 27.6714 35.1333 18.4667 35.1333M35.1333 18.4667C35.1333 9.26192 27.6714 1.8 18.4667 1.8M35.1333 18.4667H1.8M18.4667 35.1333C9.26192 35.1333 1.8 27.6714 1.8 18.4667M18.4667 35.1333C22.6355 30.5694 25.0046 24.6466 25.1333 18.4667C25.0046 12.2867 22.6355 6.36392 18.4667 1.8M18.4667 35.1333C14.2979 30.5694 11.9287 24.6466 11.8 18.4667C11.9287 12.2867 14.2979 6.36392 18.4667 1.8M1.8 18.4667C1.8 9.26192 9.26192 1.8 18.4667 1.8" stroke="var(--stroke-0, white)" stroke-width="3.6" stroke-linecap="round" stroke-linejoin="round"/>
</svg>
