<?xml version="1.0" standalone="no"?>
<!DOCTYPE svg PUBLIC "-//W3C//DTD SVG 20010904//EN"
 "http://www.w3.org/TR/2001/REC-SVG-20010904/DTD/svg10.dtd">
<svg version="1.0" xmlns="http://www.w3.org/2000/svg"
 width="2048.000000pt" height="2048.000000pt" viewBox="0 0 2048.000000 2048.000000"
 preserveAspectRatio="xMidYMid meet">
<metadata>
Created by potrace 1.14, written by Peter Selinger 2001-2017
</metadata>
<g transform="translate(0.000000,2048.000000) scale(0.100000,-0.100000)"
fill="#000000" stroke="none">
<path d="M17578 18405 c-2 -1 -41 -6 -88 -10 -46 -3 -87 -8 -90 -10 -3 -1 -36
-6 -75 -9 -38 -4 -83 -9 -100 -11 -16 -2 -57 -7 -90 -11 -33 -3 -68 -8 -79
-10 -10 -2 -44 -6 -75 -9 -31 -4 -67 -8 -81 -10 -41 -7 -113 -16 -150 -19 -50
-5 -152 -18 -175 -22 -11 -2 -56 -8 -100 -14 -44 -6 -89 -12 -101 -14 -11 -2
-45 -7 -75 -10 -30 -3 -63 -8 -74 -10 -23 -4 -115 -19 -130 -20 -52 -7 -144
-19 -160 -22 -11 -2 -101 -18 -201 -34 -99 -17 -189 -32 -201 -34 -11 -3 -36
-7 -54 -10 -19 -3 -133 -26 -254 -51 -121 -25 -232 -48 -246 -51 -22 -4 -267
-65 -319 -79 -8 -2 -58 -16 -110 -30 -52 -14 -122 -34 -155 -45 -235 -75 -383
-122 -400 -129 -55 -23 -80 -32 -152 -57 -43 -14 -91 -32 -108 -39 -16 -7
-118 -48 -225 -90 -107 -42 -204 -80 -215 -85 -11 -5 -45 -19 -75 -31 -30 -11
-59 -24 -65 -29 -5 -4 -21 -11 -35 -15 -14 -4 -52 -20 -85 -35 -33 -15 -82
-38 -110 -50 -67 -29 -549 -271 -600 -300 -22 -13 -67 -38 -100 -55 -80 -43
-152 -83 -195 -110 -19 -12 -42 -25 -50 -29 -18 -8 -34 -18 -135 -80 -346
-212 -548 -345 -790 -520 -66 -48 -191 -141 -195 -146 -3 -3 -43 -34 -90 -70
-47 -35 -87 -67 -90 -70 -3 -3 -27 -24 -55 -45 -27 -22 -55 -44 -61 -50 -6 -5
-35 -30 -64 -55 -29 -25 -78 -67 -109 -95 -82 -72 -567 -559 -707 -710 -206
-223 -366 -399 -420 -465 -16 -19 -32 -37 -35 -40 -3 -3 -52 -59 -108 -125
-57 -66 -112 -131 -125 -145 -12 -14 -40 -47 -61 -75 -22 -27 -47 -57 -55 -65
-9 -8 -58 -69 -110 -135 -52 -66 -97 -122 -100 -125 -7 -7 -68 -84 -126 -160
-28 -36 -79 -103 -115 -149 -191 -249 -483 -661 -664 -936 -96 -145 -113 -167
-125 -160 -3 1 -30 6 -61 9 -31 4 -66 9 -78 11 -140 27 -728 27 -941 0 -14 -2
-52 -6 -85 -10 -33 -4 -69 -9 -80 -11 -11 -3 -39 -7 -61 -10 -23 -2 -53 -7
-65 -9 -13 -3 -37 -8 -54 -11 -339 -61 -653 -158 -995 -310 -89 -39 -403 -199
-470 -239 -250 -148 -332 -199 -445 -273 -329 -215 -873 -630 -1018 -777 -76
-76 -91 -208 -34 -290 53 -76 96 -90 322 -110 39 -3 88 -8 110 -10 22 -2 74
-7 115 -10 143 -11 305 -28 475 -51 160 -21 463 -89 580 -129 414 -141 697
-327 935 -612 36 -43 67 -80 70 -83 3 -3 17 -21 30 -40 13 -19 27 -37 30 -40
11 -9 96 -142 149 -233 61 -102 112 -207 106 -217 -2 -4 -9 -44 -15 -91 -5
-46 -12 -100 -15 -119 -10 -81 -24 -299 -25 -407 0 -31 -4 -43 -15 -43 -8 0
-67 -33 -132 -73 -205 -128 -664 -411 -707 -436 -23 -13 -60 -36 -84 -52 -24
-16 -45 -29 -48 -29 -3 0 -17 -8 -32 -19 -15 -10 -68 -44 -117 -74 -112 -70
-136 -107 -161 -252 -9 -50 -9 -264 0 -298 5 -23 -2 -29 -87 -80 -156 -93
-529 -352 -593 -412 -6 -5 -28 -23 -49 -40 -177 -139 -312 -262 -525 -475
-231 -231 -329 -353 -496 -614 -40 -61 -82 -127 -94 -146 -85 -132 -259 -502
-360 -765 -79 -205 -204 -608 -235 -752 -2 -10 -15 -65 -29 -123 -13 -58 -27
-116 -30 -130 -3 -14 -7 -36 -10 -50 -3 -14 -10 -50 -16 -80 -6 -30 -12 -66
-15 -80 -5 -26 -22 -122 -49 -288 -9 -51 -15 -96 -14 -100 1 -7 -11 -108 -18
-147 -2 -11 -7 -51 -10 -90 -3 -38 -8 -86 -10 -105 -2 -19 -6 -81 -10 -138
l-7 -102 99 5 c55 3 115 7 134 10 19 2 64 7 100 10 36 3 83 8 105 11 22 3 51
7 65 9 14 2 50 6 80 10 45 5 141 19 265 40 23 4 129 23 165 30 14 3 50 10 80
16 87 17 94 18 207 45 60 14 117 27 128 30 36 7 320 85 345 95 14 5 34 11 45
13 11 3 40 12 65 21 25 9 52 18 60 20 37 9 320 114 365 135 11 5 43 18 70 29
113 43 391 179 526 257 403 232 690 468 1029 843 47 52 92 102 100 111 8 9 33
38 55 65 22 28 46 56 53 64 23 24 206 263 268 351 53 74 157 231 206 311 l16
26 74 -14 c90 -17 395 -25 463 -12 28 5 60 11 72 13 12 3 41 13 66 24 43 19
82 70 188 250 9 15 41 68 72 117 31 50 107 173 169 275 62 101 134 218 160
260 142 228 198 327 204 354 l5 31 137 0 c130 0 368 12 408 19 11 2 48 7 84
11 36 4 83 11 105 15 102 22 139 11 343 -107 295 -170 504 -360 674 -612 139
-207 260 -499 323 -781 18 -79 55 -276 60 -320 6 -53 8 -66 19 -135 3 -16 7
-61 11 -100 3 -38 8 -88 10 -110 8 -72 14 -139 20 -210 3 -38 8 -95 11 -125 2
-30 7 -80 9 -110 19 -208 81 -283 227 -275 100 5 130 24 418 264 414 345 600
549 818 896 77 122 214 397 277 560 137 348 257 811 290 1115 3 30 8 66 10 80
18 106 26 515 14 670 -13 162 -19 224 -24 250 -2 14 -7 48 -10 75 -8 70 -51
277 -79 385 l-23 91 46 31 c123 82 297 203 301 208 3 3 21 17 40 30 122 83
576 420 626 465 6 6 26 21 44 35 80 60 568 457 590 480 3 3 50 43 105 90 105
89 158 135 185 160 9 8 34 30 55 49 64 55 207 183 242 217 18 17 49 46 70 64
167 144 761 720 918 891 95 102 287 324 320 370 11 15 63 83 116 151 142 182
390 537 489 698 5 8 20 31 33 50 51 77 260 434 331 565 42 77 82 151 90 165
44 79 218 438 278 570 38 85 73 164 78 175 16 35 100 246 135 340 18 50 67
182 109 293 42 112 80 218 85 235 5 18 30 91 54 162 74 217 205 643 222 725 2
8 13 49 24 90 12 41 22 77 22 80 1 3 3 10 5 15 1 6 14 62 29 125 14 63 32 142
40 175 7 33 16 74 19 90 4 17 9 41 12 55 6 32 13 64 18 93 2 12 11 56 20 97
15 77 61 343 71 415 3 22 10 63 15 90 5 28 12 73 15 100 3 28 8 64 11 80 2 17
6 44 8 60 2 17 9 71 15 120 14 104 18 140 26 210 10 86 13 118 19 180 4 33 8
69 10 80 2 11 7 61 11 110 3 50 8 101 10 115 19 125 27 443 14 542 -24 181
-75 303 -163 391 -105 105 -239 148 -478 152 -86 2 -158 2 -160 0z"/>
</g>
</svg>
