<?xml version="1.0" encoding="UTF-8"?>
<svg xmlns="http://www.w3.org/2000/svg" version="1.1" xmlns:xlink="http://www.w3.org/1999/xlink" viewBox="0 0 118.5 51.6">
  <defs>
    <style>
      .cls-1 {
        fill: none;
      }

      .cls-2 {
        fill: #00a9ce;
      }

      .cls-3 {
        clip-path: url(#clippath);
      }
    </style>
    <clipPath id="clippath">
      <rect class="cls-1" x="4.96" y="4.95" width="110" height="43"/>
    </clipPath>
  </defs>
  <!-- Generator: Adobe Illustrator 28.7.1, SVG Export Plug-In . SVG Version: 1.2.0 Build 142)  -->
  <g>
    <g id="Capa_1">
      <g class="cls-3">
        <g>
          <path class="cls-2" d="M14.62,44.65h.65l-.32,3.12H6.23v-.65l.5-.09c.74-.17.84-.27.84-1.18v-7.25c0-.9-.09-.99-.84-1.18l-.5-.09v-.65h8.69l.23,3.01h-.65l-.35-.82c-.47-.98-.76-1.14-1.86-1.2l-2.73-.13v4.14l3.47-.38.17.17-.13,1.12-3.51-.1v3.5c0,.73.36.91,1.35.85l1.51-.08c1.11-.07,1.36-.2,1.88-1.4l.3-.73.03.03Z"/>
          <path class="cls-2" d="M16.16,47.45v-2.16h.59l.27.55c.43.88.94,1.29,2.06,1.29.87,0,1.49-.41,1.49-1.11s-.53-.98-1.9-1.5c-1.16-.43-2.39-1.06-2.39-2.57,0-1.67,1.51-2.43,3.26-2.43.83,0,1.8.2,2.57.55v2.05h-.59l-.27-.54c-.4-.85-.96-1.25-1.84-1.25-.8,0-1.36.38-1.36,1.06s.53,1.01,1.85,1.52c1.16.44,2.47,1.01,2.47,2.56,0,1.7-1.54,2.47-3.29,2.47-.97,0-2-.14-2.91-.51v.03Z"/>
          <path class="cls-2" d="M23.27,43.87c0-2.64,1.8-4.35,4.14-4.35,1,0,1.95.21,2.69.61v2.42h-.59l-.32-.67c-.5-.98-1.09-1.57-1.98-1.57-1.14,0-1.9,1.2-1.9,2.9,0,2.22,1.03,3.31,2.54,3.31.84,0,1.49-.44,2.03-.95l.45.47c-.62,1.07-1.9,1.9-3.35,1.9-2.11,0-3.71-1.4-3.71-4.08h.01Z"/>
          <path class="cls-2" d="M30.83,43.79c0-2.27,1.41-4.27,4.22-4.27,2.5,0,4.09,1.63,4.09,4.18,0,2.26-1.41,4.26-4.23,4.26-2.47,0-4.07-1.61-4.07-4.16h0ZM37.02,44.08c0-1.83-.6-3.75-2.15-3.75-1.31,0-1.94,1.42-1.94,3.08,0,1.83.6,3.74,2.13,3.74,1.31,0,1.95-1.4,1.95-3.07Z"/>
          <path class="cls-2" d="M39.23,47.78v-.6l.45-.09c.65-.16.72-.25.72-1.14v-7.96l-1.19-.44v-.5l2.95-.85.21.13v9.62c0,.89.06.98.72,1.14l.45.09v.6h-4.32Z"/>
          <path class="cls-2" d="M51.71,47.06c-.39.55-.96.89-1.69.89-.84,0-1.35-.39-1.42-1.28h-.13c-.62.91-1.36,1.28-2.38,1.28-1.13,0-2.08-.59-2.08-1.8s.81-1.92,2.6-2.22l1.98-.35v-1.53c0-1.1-.43-1.52-1.29-1.52-.4,0-.79.09-1.16.29v1.53h-1.78l-.16-.2c.35-1.42,1.77-2.64,3.88-2.64,1.78,0,2.47.95,2.47,2.6v4.05c0,.41.14.6.47.6.14,0,.31-.05.49-.17l.22.47ZM48.58,45.96v-1.73l-1.16.27c-.98.21-1.4.6-1.4,1.25s.4.99,1,.99,1.03-.27,1.55-.8h.01Z"/>
          <path class="cls-2" d="M55.87,47.78v-.65l.5-.09c.74-.17.84-.27.84-1.18v-7.25c0-.9-.09-.99-.84-1.18l-.5-.09v-.65h4.68v.65l-.5.09c-.74.17-.83.27-.83,1.18v7.25c0,.9.09.99.83,1.18l.5.09v.65h-4.68Z"/>
          <path class="cls-2" d="M70.47,46.76v.55l-2.85.6-.21-.13v-1.29h-.14c-.72.99-1.54,1.45-2.61,1.45-2.1,0-3.19-1.87-3.19-3.93,0-2.18,1.18-4.5,4.22-4.5.6,0,1.18.09,1.73.33v-1.87l-1.19-.44v-.5l2.95-.85.21.13v9.44c0,.75.13.88.75.97l.35.05h-.01ZM67.41,45.67v-2.95c0-1.67-.79-2.39-1.81-2.39-1.2,0-2.02,1.18-2.02,3.14,0,1.83.65,3.15,2.03,3.15.66,0,1.22-.31,1.8-.93h0Z"/>
          <path class="cls-2" d="M71.27,47.77v-.6l.47-.09c.65-.16.72-.25.72-1.14v-4.73l-1.1-.38v-.51l2.83-.77.21.13v6.26c0,.89.06.98.72,1.14l.47.09v.6h-4.32ZM72.13,37.36c0-.67.5-1.18,1.19-1.18s1.19.51,1.19,1.18-.49,1.19-1.19,1.19-1.19-.5-1.19-1.19Z"/>
          <path class="cls-2" d="M76.3,43.79c0-2.27,1.41-4.27,4.22-4.27,2.5,0,4.09,1.63,4.09,4.18,0,2.26-1.41,4.26-4.23,4.26-2.47,0-4.07-1.61-4.07-4.16h0ZM82.48,44.08c0-1.83-.6-3.75-2.15-3.75-1.31,0-1.94,1.42-1.94,3.08,0,1.83.59,3.74,2.13,3.74,1.31,0,1.95-1.4,1.95-3.07Z"/>
          <path class="cls-2" d="M100.01,47.17v.6h-4.24v-.6l.44-.09c.6-.17.67-.27.67-1.2v-3.25c0-1.15-.5-1.73-1.47-1.73-.69,0-1.18.3-1.77.85.01.14.01.27.01.41v3.72c0,.93.06,1.03.66,1.2l.44.09v.6h-4.15v-.6l.44-.09c.6-.17.66-.27.66-1.2v-3.25c0-1.15-.49-1.73-1.41-1.73-.69,0-1.24.33-1.81.89v4.16c0,.89.06.97.67,1.14l.44.09v.6h-4.24v-.6l.47-.09c.65-.16.72-.25.72-1.14v-4.73l-1.1-.37v-.51l2.83-.8.21.13v1.33h.13c.75-.95,1.66-1.49,2.73-1.49s1.86.5,2.17,1.49h.1c.76-.98,1.69-1.49,2.74-1.49,1.55,0,2.47.89,2.47,2.64v3.72c0,.93.06,1.05.72,1.2l.47.09Z"/>
          <path class="cls-2" d="M107.16,45.53l.45.44c-.79,1.31-2.06,1.97-3.44,1.97-2.07,0-3.85-1.52-3.85-4.08s1.63-4.35,3.93-4.35c2.07,0,3.35,1.31,3.42,3.54l-.14.21h-5.19c.01,2.2,1.03,3.24,2.61,3.24.87,0,1.55-.33,2.21-.98ZM102.35,42.63l3.19-.25c-.01-1.23-.58-2.09-1.47-2.09-1.06,0-1.59.97-1.72,2.34Z"/>
          <path class="cls-2" d="M108.75,47.45v-2.16h.6l.27.55c.43.88.94,1.29,2.06,1.29.87,0,1.49-.41,1.49-1.11s-.53-.98-1.9-1.5c-1.16-.43-2.39-1.06-2.39-2.57,0-1.67,1.51-2.43,3.26-2.43.83,0,1.8.2,2.57.55v2.05h-.59l-.27-.54c-.4-.85-.96-1.25-1.84-1.25-.8,0-1.36.38-1.36,1.06s.53,1.01,1.85,1.52c1.16.44,2.47,1.01,2.47,2.56,0,1.7-1.54,2.47-3.29,2.47-.97,0-2-.14-2.91-.51v.03Z"/>
          <path class="cls-2" d="M93,31.41c-7.09,0-12.86-5.83-12.86-12.99s5.77-12.99,12.86-12.99v6.86c-3.35,0-6.07,2.76-6.07,6.13s2.72,6.13,6.07,6.13v6.86Z"/>
          <path class="cls-2" d="M78.11,5.39c-4.13,2.84-6.83,7.62-6.83,13.03s2.72,10.19,6.83,13.03V5.39Z"/>
          <path class="cls-2" d="M93,31.41c-7.09,0-12.86-5.83-12.86-12.99s5.77-12.99,12.86-12.99v6.86c-3.35,0-6.07,2.76-6.07,6.13s2.72,6.13,6.07,6.13v6.86Z"/>
          <path class="cls-2" d="M4.96,18.87c0-8.38,5.34-13.92,12.82-13.92,3.61,0,6.64,1.19,8.61,2.56l.52,6.14h-1.22l-.85-1.71c-1.91-4.03-4.17-5.28-7.4-5.28-4.72,0-8.55,4.25-8.55,10.9,0,7.7,4.42,11.62,9.65,11.62,2.77,0,4.97-.85,7.52-2.98l1.03,1.05c-2.43,2.94-5.45,4.65-9.77,4.65-6.22,0-12.38-4.17-12.38-13.03h.01Z"/>
          <path class="cls-2" d="M30.02,31.45v-1.23l1.29-.22c1.66-.34,1.88-.52,1.88-2.46V9.3c0-1.93-.18-2.12-1.88-2.46l-1.29-.22v-1.23h10.02v1.23l-1.33.22c-1.66.34-1.88.52-1.88,2.46v18.23c0,1.93.22,2.12,1.88,2.46l1.33.22v1.23h-10.02Z"/>
          <path class="cls-2" d="M43.28,18.87c0-8.38,5.34-13.92,12.82-13.92,3.61,0,6.64,1.19,8.61,2.56l.52,6.14h-1.22l-.85-1.71c-1.91-4.03-4.17-5.28-7.4-5.28-4.72,0-8.55,4.25-8.55,10.9,0,7.7,4.42,11.62,9.65,11.62,2.77,0,4.97-.85,7.52-2.98l1.03,1.05c-2.43,2.94-5.45,4.65-9.77,4.65-6.22,0-12.38-4.17-12.38-13.03h.01Z"/>
        </g>
      </g>
    </g>
  </g>
</svg>