<svg preserveAspectRatio="none" width="100%" height="100%" overflow="visible" style="display: block;" viewBox="0 0 71.25 58.9421" fill="none" xmlns="http://www.w3.org/2000/svg">
<g id="MIT Logo">
<path id="Vector" d="M14.3265 24.5101C13.0417 24.1408 12.3346 25.8544 13.3866 26.5406C14.8096 27.1725 16.0489 24.8287 14.2845 24.5031" fill="var(--fill-0, white)"/>
<path id="Vector_2" d="M60.1645 45.9578C57.4531 62.2699 27.9955 60.4547 16.4988 55.3225C8.11087 51.7027 12.1018 46.0454 7.67852 44.8953C7.13064 44.7326 7.1744 43.9011 7.45447 43.5073C9.09635 40.4143 11.5609 44.5383 13.5459 45.2332C13.9432 45.6445 14.246 44.8831 14.5279 44.6678C16.063 43.6 16.7579 45.2192 17.5211 46.0804C19.0772 47.1446 21.568 49.1243 22.8125 46.7228C24.1481 46.2677 24.8273 46.7228 25.5624 47.85C26.2206 47.8798 26.3974 48.8705 27.1588 48.7025C28.6307 48.4146 30.142 48.3903 31.6223 48.6307C32.5536 48.1634 30.7156 46.2344 33.3587 46.0926C37.4354 47.7643 30.2868 49.5409 39.6952 49.0683C40.1171 49.0508 39.9788 48.4959 40.0348 48.2019C40.3761 46.651 42.9125 46.3534 43.231 48.0706C43.982 49.1733 45.3508 47.2706 46.4605 47.8273C50.7963 48.3717 49.452 46.2852 51.3109 45.48C52.0216 45.2594 52.6465 45.7198 53.1208 46.1679C53.996 45.9928 54.8853 45.7968 55.7902 45.8283C56.5044 45.1159 58.4403 43.0574 59.2245 44.603C59.361 43.2692 59.8442 41.3333 61.5858 41.9774C61.6593 42.0627 61.749 42.1325 61.8496 42.1829C61.9503 42.2333 62.0599 42.2633 62.1722 42.2711C62.2845 42.2789 62.3972 42.2644 62.5039 42.2284C62.6105 42.1924 62.709 42.1357 62.7936 42.0614C64.8748 40.36 64.544 38.7829 67.3989 37.8237L64.8556 37.5576C65.5277 36.1451 67.3061 36.1241 68.0361 34.8042C66.8563 34.8428 66.1596 35.4134 65.4507 36.3236C65.2547 36.7787 64.4005 37.0238 64.7908 37.5804" fill="var(--fill-0, white)"/>
<path id="Vector_3" d="M60.1644 45.9578C61.8046 45.2332 66.1561 45.2997 64.1904 42.5095C67.0558 41.335 65.1864 40.5718 68.8412 40.3215C70.9732 39.6214 68.6662 36.6037 67.2658 38.1633L67.2133 38.0688L67.2378 38.1563C67.4794 34.8305 72.1687 37.6609 71.0887 33.8923C70.6511 33.4354 69.8915 33.4092 69.2963 33.4687C69.4171 32.8455 69.165 31.8933 68.4211 31.8688C66.2121 31.6325 65.7237 34.981 63.2294 35.8562C61.7416 33.6735 62.7498 33.8363 63.9488 32.0211C64.0766 30.0519 64.7995 30.416 66.3994 29.9539C68.0833 28.4048 65.0848 26.3148 64.2726 28.5185L64.2586 28.4993C64.3549 30.8623 61.0221 30.6663 60.3045 32.8315C59.354 31.1932 58.4053 29.8348 56.3976 30.0589C55.9722 27.9812 58.2407 27.232 59.0337 25.7774C59.361 24.0427 57.0312 23.3373 56.1613 24.8094C55.0112 28.5781 54.7224 30.0606 50.4479 28.6743C48.9583 28.2927 45.6641 29.9189 46.0124 27.2355C45.8461 25.268 46.2697 25.156 47.4477 23.9832C47.7978 22.7579 46.4447 21.741 45.4523 22.6354C45.2055 24.3858 45.377 27.3615 43.1662 27.9654C40.5021 27.6888 37.2149 29.2817 37.5999 25.1C39.5516 23.6647 37.9763 20.724 36.1769 22.8927C35.9301 23.4756 36.1436 24.244 36.5497 24.6939C36.5252 26.3358 35.7393 28.1685 33.8086 27.6941C31.3685 28.1527 30.6578 26.7226 30.0102 24.6781C30.0102 23.6279 31.3562 22.6319 30.1274 21.7462C26.4078 20.7152 30.3025 25.7721 28.3018 27.1532C27.1675 27.3563 25.909 26.9957 24.7835 27.4088C22.7985 29.7788 21.5417 27.5296 19.8823 26.1292C19.5357 25.2803 20.1904 23.7784 18.9686 23.4284C16.6528 23.031 17.5193 25.8982 19.1436 26.194C20.467 28.0529 21.827 31.9336 18.0234 31.2579C17.0274 30.703 16.371 26.6491 15.116 28.7758C15.0319 29.9066 16.6441 30.8448 15.9229 31.8618C15.2998 32.5777 13.8907 32.8123 13.3253 31.9196C11.8584 30.6523 11.5049 29.2345 11.2441 27.4403C10.4634 26.271 8.58344 27.365 9.23284 28.6271C9.4884 29.5023 10.4424 29.6948 10.8642 30.3442C12.7091 33.8853 8.4259 31.503 7.45792 33.9203C6.51795 34.2704 5.95432 32.2329 4.96534 31.9948C4.24068 31.5012 3.22544 30.8448 3.26045 29.8699C3.09766 27.7694 -0.299882 28.0932 0.685597 30.311C3.46349 31.7288 3.10291 31.1459 4.78155 34.3369C6.48995 36.2256 4.30194 35.6707 4.80256 38.0005C3.31121 37.815 3.00489 36.4111 2.07717 35.5132C0.82738 34.806 -0.431163 36.1293 0.142971 37.3966C1.11095 38.5641 3.09241 37.5349 3.81883 39.3448C2.52177 39.2905 2.33798 41.342 3.34622 41.9162C4.1304 42.3748 5.2174 41.7901 5.8738 42.4413C7.67322 44.5418 10.9202 46.4077 13.2553 43.9991L12.9349 44.3212C22.5517 37.0903 45.9529 35.8055 55.3823 45.1492C56.5761 46.4532 58.6171 47.2497 60.1609 45.9561" fill="var(--fill-0, white)"/>
<path id="Vector_4" d="M39.9104 1.92984C39.9472 4.50469 35.9038 4.50469 35.9423 1.92984C35.9038 -0.643259 39.9472 -0.643259 39.9104 1.92984Z" fill="var(--fill-0, white)"/>
</g>
</svg>
